<?xml version="1.0" encoding="utf-8"?>
<!-- Generator: Adobe Illustrator 26.0.1, SVG Export Plug-In . SVG Version: 6.00 Build 0)  -->
<svg version="1.1" id="Layer_1" xmlns="http://www.w3.org/2000/svg" xmlns:xlink="http://www.w3.org/1999/xlink" x="0px" y="0px"
	 viewBox="0 0 78 40" style="enable-background:new 0 0 78 40;" xml:space="preserve">
<style type="text/css">
	.st0{fill:#484848;}
</style>
<desc>Created with Sketch.</desc>
<g id="Page-1">
	<path id="Rey-Logo" class="st0" d="M78,0.9h-9.3l-5.1,14.3L58.5,0.9h-9.3L59.4,25l-6.7,15H62L78,0.9z M8.5,5.6V0.9H0v25.7h8.5v-9.5
		c0-4.2,2.2-7,4.7-7.7c1.5-0.4,3.1-0.5,4.7,0V0C13,0.3,10.2,1.9,8.5,5.6z M35.7,19.9c-1,0-2-0.2-2.6-0.5l15-9.1
		C46.2,1.8,39.7,0,36,0c-8.8,0-14.2,6.1-14.2,13.7S27.2,27.5,36,27.5c4.1,0,7.6-1.5,10.4-4.2l-4.3-5.7
		C40.5,18.9,38.3,19.9,35.7,19.9z M36,7.5c1.4,0,2.3,0.7,2.8,1.4L30,14.2C29.5,10.2,32.4,7.5,36,7.5z"/>
</g>
</svg>
